<?xml version="1.0" standalone="no"?>
<!DOCTYPE svg PUBLIC "-//W3C//DTD SVG 20010904//EN"
 "http://www.w3.org/TR/2001/REC-SVG-20010904/DTD/svg10.dtd">
<svg version="1.0" xmlns="http://www.w3.org/2000/svg"
 width="50px" height="50px" viewBox="0 0 754.000000 450.000000"
 preserveAspectRatio="xMidYMid meet">

<g transform="translate(0.000000,450.000000) scale(0.100000,-0.100000)"
fill="#000000" stroke="none">
<path d="M1792 3133 c66 -70 104 -133 139 -232 l26 -75 12 40 c34 111 99 221
166 283 l45 41 -222 0 -221 0 55 -57z"/>
<path d="M2225 3138 l25 -53 0 -715 c0 -685 -1 -717 -20 -757 l-19 -43 209 0
c116 0 210 2 210 4 0 2 -10 25 -22 52 l-23 49 -3 758 -3 757 -189 0 -189 0 24
-52z"/>
<path d="M2847 3161 c169 -87 242 -295 183 -526 -32 -125 -90 -205 -195 -267
l-50 -29 90 6 c131 10 181 21 262 60 213 101 297 335 198 552 -68 150 -193
215 -440 229 l-110 6 62 -31z"/>
<path d="M3390 3185 c0 -3 10 -25 23 -48 l22 -42 0 -715 c0 -715 0 -715 -22
-762 l-22 -48 215 0 c119 0 214 3 212 8 -46 88 -43 35 -43 792 l0 705 22 55
c13 30 23 56 23 58 0 1 -97 2 -215 2 -118 0 -215 -2 -215 -5z"/>
<path d="M5325 3173 c42 -98 40 -66 43 -780 l3 -683 -24 -70 -23 -70 259 0
259 0 -43 33 c-24 18 -54 54 -68 82 l-26 49 -3 728 -3 728 -190 0 c-178 0
-191 -1 -184 -17z"/>
<path d="M6132 3160 c56 -46 131 -166 159 -253 13 -42 27 -77 30 -77 4 0 10
16 14 36 16 88 110 245 177 298 l33 26 -225 0 -225 0 37 -30z"/>
<path d="M1375 3151 c-101 -58 -183 -168 -220 -296 -24 -80 -17 -202 15 -270
42 -89 162 -196 397 -354 302 -203 347 -253 348 -396 0 -89 -35 -165 -103
-226 l-47 -42 45 7 c67 10 161 59 218 116 146 144 162 369 38 538 -60 81 -137
144 -357 288 -102 67 -213 148 -247 179 -82 75 -122 155 -122 240 0 86 15 124
86 223 22 29 9 28 -51 -7z"/>
<path d="M4435 3157 c-175 -48 -323 -139 -416 -255 -180 -223 -233 -521 -143
-802 72 -225 258 -418 466 -481 184 -55 463 -64 616 -20 69 20 212 85 212 96
0 3 -13 -1 -28 -9 -86 -45 -165 -61 -292 -60 -109 0 -135 3 -203 27 -136 47
-241 126 -319 240 -89 130 -126 263 -135 477 -15 391 97 667 317 780 69 36 41
38 -75 7z"/>
<path d="M4924 3119 c60 -65 118 -167 137 -243 6 -26 14 -44 17 -41 3 3 13 30
23 59 24 79 82 178 139 236 l49 50 -211 0 -210 0 56 -61z"/>
<path d="M6145 2572 c-44 -51 -154 -121 -242 -153 -43 -15 -71 -29 -63 -32
141 -46 224 -92 296 -165 23 -23 44 -42 48 -42 9 0 7 418 -1 423 -5 2 -21 -12
-38 -31z"/>
<path d="M1265 1899 c-12 -69 -82 -195 -147 -265 l-60 -64 222 0 222 0 -63 68
c-67 70 -132 185 -144 255 -10 52 -22 55 -30 6z"/>
<path d="M6293 1855 c-25 -79 -103 -207 -153 -249 -17 -13 -30 -27 -30 -30 0
-3 95 -6 211 -6 l211 0 -57 63 c-57 62 -128 192 -141 255 -4 18 -9 34 -13 36
-3 2 -16 -29 -28 -69z"/>
<path d="M3120 1145 c0 -158 1 -165 20 -165 18 0 20 7 20 80 l0 80 75 0 75 0
0 -80 c0 -73 2 -80 20 -80 19 0 20 7 20 165 0 158 -1 165 -20 165 -18 0 -20
-7 -20 -70 l0 -70 -75 0 -75 0 0 70 c0 63 -2 70 -20 70 -19 0 -20 -7 -20 -165z"/>
<path d="M3462 1152 c-28 -87 -52 -161 -52 -165 0 -4 8 -7 18 -7 13 0 23 14
33 48 l15 47 64 0 64 0 14 -47 c10 -36 18 -48 33 -48 10 0 19 3 19 7 0 4 -24
78 -52 165 -50 149 -54 158 -78 158 -24 0 -28 -9 -78 -158z m102 51 c11 -38
21 -74 24 -80 3 -9 -11 -13 -48 -13 -45 0 -52 2 -47 18 23 82 43 142 47 142 3
0 14 -30 24 -67z"/>
<path d="M3725 1148 c48 -149 54 -163 77 -166 23 -3 26 4 72 149 26 84 50 158
53 166 3 8 -2 13 -16 13 -21 0 -29 -21 -86 -223 -10 -33 -20 -55 -25 -50 -4 4
-24 68 -45 141 -34 118 -41 132 -60 132 -22 0 -21 -4 30 -162z"/>
<path d="M3980 1145 l0 -165 95 0 c78 0 95 3 95 15 0 12 -15 15 -75 15 l-75 0
0 65 0 65 65 0 c51 0 65 3 65 15 0 12 -14 15 -65 15 l-65 0 0 55 0 55 75 0
c60 0 75 3 75 15 0 12 -17 15 -95 15 l-95 0 0 -165z"/>
<path d="M4250 1146 c0 -163 0 -166 21 -166 22 0 22 2 16 136 -3 75 -3 134 -1
131 3 -3 38 -63 78 -133 54 -96 78 -130 94 -132 22 -3 22 -2 22 162 0 163 0
166 -22 166 -21 0 -21 -2 -15 -137 4 -90 3 -133 -4 -123 -5 8 -40 69 -77 135
-51 89 -74 121 -90 123 -22 3 -22 2 -22 -162z"/>
</g>
</svg>
